<svg width="193" height="65" viewBox="0 0 193 65" fill="none" xmlns="http://www.w3.org/2000/svg">
<path d="M150.887 26.3796L147.529 43.2074H142.886L143.199 41.5497C141.798 42.8217 140.072 43.4577 138.022 43.4577C136.704 43.4577 135.491 43.1553 134.382 42.5506C133.274 41.9458 132.385 41.0805 131.715 39.9545C131.067 38.8076 130.743 37.4626 130.743 35.9195C130.743 34.0637 131.151 32.3956 131.966 30.915C132.803 29.4136 133.933 28.2459 135.355 27.4118C136.778 26.5569 138.346 26.1294 140.062 26.1294C142.655 26.1294 144.486 26.9739 145.553 28.6629L145.992 26.3796H150.887ZM139.528 39.4228C140.49 39.4228 141.348 39.1933 142.101 38.7346C142.854 38.255 143.44 37.5982 143.858 36.7641C144.277 35.93 144.486 34.9708 144.486 33.8865C144.486 32.7395 144.141 31.8325 143.45 31.1652C142.781 30.498 141.84 30.1643 140.626 30.1643C139.664 30.1643 138.807 30.4041 138.054 30.8837C137.3 31.3425 136.715 31.9889 136.296 32.823C135.878 33.6571 135.669 34.6163 135.669 35.7006C135.669 36.8474 136.004 37.7545 136.673 38.4218C137.363 39.089 138.315 39.4228 139.528 39.4228Z" fill="url(#paint0_linear_12807_1650)"/>
<path d="M156.956 43.4577C155.492 43.4577 154.101 43.3013 152.783 42.9885C151.486 42.6548 150.471 42.2274 149.739 41.706L151.622 38.1716C152.354 38.6512 153.243 39.037 154.289 39.3289C155.356 39.6209 156.422 39.7668 157.489 39.7668C158.598 39.7668 159.424 39.6312 159.968 39.3601C160.512 39.0682 160.784 38.6616 160.784 38.1403C160.784 37.7232 160.543 37.4209 160.062 37.2332C159.581 37.0456 158.807 36.8474 157.74 36.639C156.527 36.4096 155.523 36.1593 154.728 35.8883C153.954 35.6172 153.274 35.1793 152.689 34.5745C152.124 33.949 151.841 33.1045 151.841 32.041C151.841 30.1852 152.615 28.7359 154.163 27.6933C155.732 26.6507 157.782 26.1294 160.313 26.1294C161.485 26.1294 162.625 26.2545 163.733 26.5047C164.842 26.755 165.783 27.099 166.557 27.5369L164.8 31.1027C163.419 30.2477 161.757 29.8202 159.811 29.8202C158.744 29.8202 157.929 29.9766 157.364 30.2894C156.82 30.6022 156.548 30.9984 156.548 31.478C156.548 31.9159 156.789 32.2391 157.27 32.4476C157.751 32.6353 158.556 32.8438 159.686 33.0732C160.878 33.3025 161.851 33.5528 162.604 33.8239C163.378 34.0741 164.047 34.5016 164.612 35.1064C165.177 35.711 165.459 36.5347 165.459 37.5773C165.459 39.4541 164.664 40.9032 163.074 41.925C161.505 42.9467 159.466 43.4577 156.956 43.4577Z" fill="url(#paint1_linear_12807_1650)"/>
<path d="M178.802 33.699L184.607 43.2077H178.927L174.911 36.6705L171.93 39.1414L171.115 43.2077H166.22L170.864 19.999H175.758L173.154 32.9796L181.249 26.3798H187.619L178.802 33.699Z" fill="url(#paint2_linear_12807_1650)"/>
<path d="M189.022 45.3427V34.9826C189.022 33.8876 189.91 33 191.005 33C192.097 33 192.984 33.8938 192.987 34.9862C193.03 47.3327 193.014 46.862 192.131 48.6693C191.406 50.1563 190.165 51.4183 188.702 52.1555C187.682 52.6679 186.355 53.0427 185.556 53.0552C185.332 53.0552 185.151 53.2368 185.151 53.4608V58.2033C185.151 62.9641 185.126 63.4014 184.917 63.8763C184.573 64.6385 184.02 64.9884 183.159 64.9884C182.311 64.9759 183.147 65.6381 175.048 58.5907L169.554 53.7951C169.007 53.3181 168.306 53.0552 167.581 53.0552H160.115H133.106C132.733 53.0552 132.367 52.956 132.045 52.7678C131.516 52.4679 131 51.6307 131 51.0559C131 50.4811 131.516 49.6439 132.045 49.3441C132.367 49.1559 132.733 49.0567 133.106 49.0567H160.668C168.337 49.0567 169.861 49.0817 170.193 49.2316C170.414 49.3316 172.971 51.4933 175.871 54.0424L181.156 58.6657L181.218 54.4922C181.279 50.5311 181.291 50.3062 181.537 49.9813C182.115 49.1941 182.311 49.1191 184.266 49.0567C185.863 48.9942 186.146 48.9442 186.761 48.6568C187.633 48.257 188.285 47.5822 188.702 46.695L188.751 46.5889C188.93 46.1977 189.022 45.7727 189.022 45.3427Z" fill="url(#paint3_linear_12807_1650)"/>
<path d="M130.978 18.7125L130.978 21.156C130.978 21.4195 130.926 21.6804 130.824 21.9237C129.987 23.9341 126.989 23.3339 127.01 21.156C127.053 16.8032 127.243 16.6655 127.869 15.3859C128.594 13.8989 129.835 12.6369 131.298 11.8997C132.318 11.3874 133.645 11.0125 134.444 11L159.885 11L175.894 11C176.267 11 176.633 11.0992 176.955 11.2874C177.484 11.5873 178 12.4245 178 12.9993C178 13.5741 177.484 14.4113 176.955 14.7112C176.633 14.8994 176.267 14.9985 175.894 14.9985L159.332 14.9985C150.808 14.9985 143.808 14.7404 135.734 14.9986C134.137 15.061 133.854 15.111 133.239 15.3984C132.367 15.7983 131.715 16.473 131.298 17.3602L131.249 17.4663C131.07 17.8575 130.978 18.2825 130.978 18.7125Z" fill="url(#paint4_linear_12807_1650)"/>
<path d="M2.394 13.6H7.854V23.68H8.022C8.61 23.008 9.366 22.476 10.29 22.084C11.214 21.692 12.236 21.496 13.356 21.496C15.876 21.496 17.794 22.364 19.11 24.1C20.454 25.808 21.126 28.426 21.126 31.954C21.126 35.734 20.188 38.604 18.312 40.564C16.464 42.524 13.916 43.504 10.668 43.504C8.876 43.504 7.238 43.35 5.754 43.042C4.27 42.762 3.15 42.44 2.394 42.076V13.6ZM11.76 26.116C10.752 26.116 9.926 26.382 9.282 26.914C8.666 27.418 8.19 28.16 7.854 29.14V38.296C8.302 38.52 8.778 38.674 9.282 38.758C9.814 38.842 10.374 38.884 10.962 38.884C12.446 38.884 13.566 38.352 14.322 37.288C15.106 36.196 15.498 34.474 15.498 32.122C15.498 28.118 14.252 26.116 11.76 26.116ZM36.5036 27.124C35.6356 26.816 34.8516 26.662 34.1516 26.662C33.1716 26.662 32.3456 26.928 31.6736 27.46C31.0296 27.964 30.5956 28.622 30.3716 29.434V43H24.9116V22H29.1536L29.7836 24.772H29.9516C30.4276 23.736 31.0716 22.938 31.8836 22.378C32.6956 21.818 33.6476 21.538 34.7396 21.538C35.4676 21.538 36.2936 21.692 37.2176 22L36.5036 27.124ZM56.4362 41.194C55.5962 41.866 54.4482 42.44 52.9922 42.916C51.5642 43.364 50.0382 43.588 48.4142 43.588C45.0262 43.588 42.5482 42.608 40.9802 40.648C39.4122 38.66 38.6282 35.944 38.6282 32.5C38.6282 28.804 39.5102 26.032 41.2742 24.184C43.0382 22.336 45.5162 21.412 48.7082 21.412C49.7722 21.412 50.8082 21.552 51.8162 21.832C52.8242 22.112 53.7202 22.574 54.5042 23.218C55.2882 23.862 55.9182 24.73 56.3942 25.822C56.8702 26.914 57.1082 28.272 57.1082 29.896C57.1082 30.484 57.0662 31.114 56.9822 31.786C56.9262 32.458 56.8282 33.158 56.6882 33.886H44.0882C44.1722 35.65 44.6202 36.98 45.4322 37.876C46.2722 38.772 47.6162 39.22 49.4642 39.22C50.6122 39.22 51.6342 39.052 52.5302 38.716C53.4542 38.352 54.1542 37.988 54.6302 37.624L56.4362 41.194ZM48.6242 25.78C47.1962 25.78 46.1322 26.214 45.4322 27.082C44.7602 27.922 44.3542 29.056 44.2142 30.484H52.0262C52.1382 28.972 51.9002 27.81 51.3122 26.998C50.7522 26.186 49.8562 25.78 48.6242 25.78ZM77.5592 41.194C76.7192 41.866 75.5712 42.44 74.1152 42.916C72.6872 43.364 71.1612 43.588 69.5372 43.588C66.1492 43.588 63.6712 42.608 62.1032 40.648C60.5352 38.66 59.7512 35.944 59.7512 32.5C59.7512 28.804 60.6332 26.032 62.3972 24.184C64.1612 22.336 66.6392 21.412 69.8312 21.412C70.8952 21.412 71.9312 21.552 72.9392 21.832C73.9472 22.112 74.8432 22.574 75.6272 23.218C76.4112 23.862 77.0412 24.73 77.5172 25.822C77.9932 26.914 78.2312 28.272 78.2312 29.896C78.2312 30.484 78.1892 31.114 78.1052 31.786C78.0492 32.458 77.9512 33.158 77.8112 33.886H65.2112C65.2952 35.65 65.7432 36.98 66.5552 37.876C67.3952 38.772 68.7392 39.22 70.5872 39.22C71.7352 39.22 72.7572 39.052 73.6532 38.716C74.5772 38.352 75.2772 37.988 75.7532 37.624L77.5592 41.194ZM69.7472 25.78C68.3192 25.78 67.2552 26.214 66.5552 27.082C65.8832 27.922 65.4772 29.056 65.3372 30.484H73.1492C73.2612 28.972 73.0232 27.81 72.4352 26.998C71.8752 26.186 70.9792 25.78 69.7472 25.78ZM80.7903 38.38L89.0643 28.426L91.2063 26.62H80.7903V22H97.2543V26.62L89.0643 36.742L86.9643 38.38H97.2543V43H80.7903V38.38ZM117.59 41.194C116.75 41.866 115.602 42.44 114.146 42.916C112.718 43.364 111.192 43.588 109.568 43.588C106.18 43.588 103.702 42.608 102.134 40.648C100.566 38.66 99.7825 35.944 99.7825 32.5C99.7825 28.804 100.664 26.032 102.428 24.184C104.192 22.336 106.67 21.412 109.862 21.412C110.926 21.412 111.962 21.552 112.97 21.832C113.978 22.112 114.874 22.574 115.658 23.218C116.442 23.862 117.072 24.73 117.548 25.822C118.024 26.914 118.262 28.272 118.262 29.896C118.262 30.484 118.22 31.114 118.136 31.786C118.08 32.458 117.982 33.158 117.842 33.886H105.242C105.326 35.65 105.774 36.98 106.586 37.876C107.426 38.772 108.77 39.22 110.618 39.22C111.766 39.22 112.788 39.052 113.684 38.716C114.608 38.352 115.308 37.988 115.784 37.624L117.59 41.194ZM109.778 25.78C108.35 25.78 107.286 26.214 106.586 27.082C105.914 27.922 105.508 29.056 105.368 30.484H113.18C113.292 28.972 113.054 27.81 112.466 26.998C111.906 26.186 111.01 25.78 109.778 25.78Z" fill="#1F1F40"/>
<defs>
<linearGradient id="paint0_linear_12807_1650" x1="130.743" y1="19.9988" x2="143.888" y2="57.2374" gradientUnits="userSpaceOnUse">
<stop stop-color="#2A2B83"/>
<stop offset="1" stop-color="#0096DB"/>
</linearGradient>
<linearGradient id="paint1_linear_12807_1650" x1="130.743" y1="19.9988" x2="143.888" y2="57.2374" gradientUnits="userSpaceOnUse">
<stop stop-color="#2A2B83"/>
<stop offset="1" stop-color="#0096DB"/>
</linearGradient>
<linearGradient id="paint2_linear_12807_1650" x1="130.743" y1="19.999" x2="143.888" y2="57.2376" gradientUnits="userSpaceOnUse">
<stop stop-color="#2A2B83"/>
<stop offset="1" stop-color="#0096DB"/>
</linearGradient>
<linearGradient id="paint3_linear_12807_1650" x1="131" y1="65" x2="152.114" y2="17.2003" gradientUnits="userSpaceOnUse">
<stop stop-color="#2A2B83"/>
<stop offset="1" stop-color="#0096DB"/>
</linearGradient>
<linearGradient id="paint4_linear_12807_1650" x1="178" y1="11" x2="167.177" y2="43.16" gradientUnits="userSpaceOnUse">
<stop stop-color="#2A2B83"/>
<stop offset="1" stop-color="#0096DB"/>
</linearGradient>
</defs>
</svg>
